<svg width="26" height="22" viewBox="0 0 26 22" fill="none" xmlns="http://www.w3.org/2000/svg">
<path d="M13.0739 6.31032C12.4337 6.31032 11.8223 6.43718 11.2396 6.6909C10.6569 6.94462 10.1563 7.28019 9.73769 7.6976C9.31913 8.11501 8.98264 8.61426 8.72822 9.19537C8.4738 9.77647 8.34659 10.3862 8.34659 11.0246C8.34659 11.663 8.4738 12.2768 8.72822 12.8661C8.98264 13.4554 9.31913 13.9588 9.73769 14.3762C10.1563 14.7936 10.6569 15.1251 11.2396 15.3706C11.8223 15.6161 12.4337 15.7389 13.0739 15.7389C13.9438 15.7389 14.7399 15.5302 15.4621 15.1128C16.1843 14.6954 16.7547 14.1265 17.1733 13.4063C17.5919 12.6861 17.8011 11.8922 17.8011 11.0246C17.8011 9.73145 17.3415 8.62245 16.4223 7.6976C15.5032 6.77275 14.387 6.31032 13.0739 6.31032ZM13.0739 14.1675C12.5158 14.1675 11.9905 14.0242 11.4981 13.7378C11.0057 13.4513 10.6158 13.0666 10.3286 12.5838C10.0414 12.1009 9.89773 11.573 9.89773 11.0001C9.89773 10.5745 9.9798 10.1693 10.1439 9.78465C10.3081 9.39998 10.5338 9.06441 10.821 8.77796C11.1083 8.4915 11.4448 8.26642 11.8305 8.10273C12.2162 7.93904 12.6225 7.8572 13.0492 7.8572C13.9192 7.8572 14.6619 8.16412 15.2775 8.77796C15.893 9.39179 16.2008 10.1325 16.2008 11.0001C16.2008 11.8676 15.8971 12.6124 15.2898 13.2344C14.6825 13.8565 13.9438 14.1675 13.0739 14.1675ZM25.6061 10.8282C25.6061 10.8118 25.602 10.7913 25.5938 10.7668C25.5855 10.7422 25.5814 10.7218 25.5814 10.7054C25.5814 10.689 25.5773 10.6768 25.5691 10.6686L25.5568 10.6563V10.6318L25.5322 10.5826C24.416 8.0127 22.7254 5.99522 20.4602 4.53019C18.1951 3.06516 15.7247 2.33264 13.0492 2.33264C11.2929 2.33264 9.60227 2.65184 7.97727 3.29023C6.35227 3.92862 4.87911 4.87394 3.55777 6.12617C2.23643 7.3784 1.19823 8.86389 0.443184 10.5826V10.644L0.418562 10.6809V10.7545L0.393941 10.8036C0.377527 10.9018 0.36932 10.9755 0.36932 11.0246C0.36932 11.0573 0.373423 11.0901 0.381631 11.1228C0.389838 11.1556 0.393941 11.1883 0.393941 11.221C0.393941 11.2374 0.402148 11.262 0.418562 11.2947V11.3438L0.430873 11.3806L0.443184 11.3929V11.4666C1.57576 14.0365 3.27873 16.0458 5.55209 17.4945C7.82544 18.9431 10.3081 19.6675 13 19.6675C14.7563 19.6675 16.4429 19.3524 18.0597 18.7222C19.6765 18.0919 21.1414 17.1548 22.4545 15.9108C23.7677 14.6667 24.7936 13.1853 25.5322 11.4666C25.5486 11.4666 25.5568 11.4584 25.5568 11.442V11.4052L25.5691 11.3806L25.5814 11.3684V11.2947L25.6061 11.2456C25.6225 11.1474 25.6307 11.0737 25.6307 11.0246C25.6307 10.9919 25.6266 10.9591 25.6184 10.9264C25.6102 10.8937 25.6061 10.8609 25.6061 10.8282ZM13 18.096C10.6692 18.096 8.51073 17.4863 6.52462 16.2668C4.53851 15.0473 3.02841 13.2999 1.99432 11.0246C3.02841 8.74931 4.54672 6.99373 6.54924 5.75787C8.55177 4.522 10.7184 3.90407 13.0492 3.90407C14.5593 3.90407 16.0079 4.16598 17.3949 4.68978C18.7819 5.21359 20.0581 6.01977 21.2235 7.10831C22.3889 8.19685 23.3163 9.50229 24.0057 11.0246C22.9716 13.2999 21.4615 15.0473 19.4754 16.2668C17.4893 17.4863 15.3308 18.096 13 18.096Z" fill="white"/>
</svg>
